<?xml version="1.0" encoding="UTF-8"?>
<svg width="542px" height="527px" viewBox="0 0 542 527" version="1.1" xmlns="http://www.w3.org/2000/svg" xmlns:xlink="http://www.w3.org/1999/xlink">
    <title>icon</title>
    <defs>
        <polygon id="path-1" points="542 0 0 0 0 527 542 527"></polygon>
    </defs>
    <g id="Page-1" stroke="none" stroke-width="1" fill="none" fill-rule="evenodd">
        <g id="icon">
            <mask id="mask-2" fill="white">
                <use xlink:href="#path-1"></use>
            </mask>
            <g id="Path"></g>
            <rect id="Rectangle" fill="#FFA010" mask="url(#mask-2)" x="0" y="0" width="542" height="527"></rect>
            <g id="Group" mask="url(#mask-2)" fill-rule="nonzero">
                <path d="M483.023,0 L58.9773,0 C26.4051,0 0,25.6743 0,57.3451 L0,469.655 C0,501.327 26.4051,527 58.9773,527 L483.023,527 C515.596,527 542,501.327 542,469.655 L542,57.3451 C542,25.6743 515.596,0 483.023,0 Z" id="Path" fill="#FFA010"></path>
                <polygon id="Path" fill="#17191C" points="208.495 209.087 299.726 244.914 355.593 222.966 375.123 139.006 299.726 168.62 156.405 112.337 104.316 336.272 186.406 304.033"></polygon>
                <polygon id="Path" fill="#17191C" points="355.594 222.966 333.505 317.913 242.271 282.086 186.406 304.036 166.876 387.996 242.271 358.38 385.593 414.663 437.681 190.729"></polygon>
            </g>
        </g>
    </g>
</svg>