<svg width="542" height="527" viewBox="0 0 542 527" fill="none" xmlns="http://www.w3.org/2000/svg">
<g clip-path="url(#clip0_887_237)">
<mask id="mask0_887_237" style="mask-type:luminance" maskUnits="userSpaceOnUse" x="0" y="0" width="542" height="527">
<path d="M542 0H0V527H542V0Z" fill="white"/>
</mask>
<g mask="url(#mask0_887_237)">
<path d="M483.023 0H58.9773C26.4051 0 0 25.6743 0 57.3451V469.655C0 501.327 26.4051 527 58.9773 527H483.023C515.596 527 542 501.327 542 469.655V57.3451C542 25.6743 515.596 0 483.023 0Z" fill="#FFA010"/>
<path d="M208.495 209.087L299.726 244.914L355.593 222.966L375.123 139.006L299.726 168.62L156.405 112.337L104.316 336.272L186.406 304.033L208.495 209.087Z" fill="#17191C"/>
<path d="M355.594 222.966L333.505 317.913L242.271 282.086L186.406 304.036L166.876 387.996L242.271 358.38L385.593 414.663L437.681 190.729L355.594 222.966Z" fill="#17191C"/>
</g>
</g>
<defs>
<clipPath id="clip0_887_237">
<rect width="542" height="527" fill="white"/>
</clipPath>
</defs>
</svg>
