<?xml version="1.0" encoding="UTF-8"?>
<svg width="1655px" height="967px" viewBox="0 0 1655 967" version="1.1" xmlns="http://www.w3.org/2000/svg" xmlns:xlink="http://www.w3.org/1999/xlink">
    <title>Artboard</title>
    <g id="Artboard" stroke="none" stroke-width="1" fill="none" fill-rule="evenodd" opacity="0.65">
        <g id="Group-62" transform="translate(-229.110122, -350.985500)" fill="#17191C" fill-rule="nonzero">
            <path d="M354.201225,370.531647 L351.026995,353.404135 L351.024716,353.392514 L343.360307,312.036148 L109.285343,355.419418 L120.126603,413.914575 L144.983922,548.033197 L144.986087,548.04459 L152.651066,589.401867 L386.726258,546.017686 L375.884201,487.522301 L354.201225,370.531647 Z M178.656965,403.06682 L254.310053,389.045975 L192.661175,478.692337 L178.645344,403.069099 L178.656965,403.06682 Z M303.349856,422.745679 L317.365687,498.368916 L241.701091,512.39204 L303.33812,422.747958 L303.349856,422.745679 Z" id="Shape"></path>
            <g id="Group" transform="translate(372.619962, 270.898174)">
                <polygon id="Path" points="241.742792 33.700182 277.442055 226.314302 84.7414581 262.04091 132.418711 192.70005 208.084105 178.675787 194.065539 103.041384"></polygon>
                <polygon id="Path" points="192.701736 0 145.024483 69.3413385 69.3602289 83.3649179 83.3753771 158.987814 35.698124 228.329813 0 35.715237"></polygon>
            </g>
            <polygon id="Path" points="1347.67938 287.238759 1333.22558 209.252509 1255.20857 223.712117 1240.75249 145.71379 1162.72294 160.176019 1206.09003 394.15824 1440.16044 350.774857 1425.71348 272.77694"></polygon>
            <g id="Group" transform="translate(636.057123, 214.404992)">
                <polygon id="Path" points="266.598858 175.486381 32.523894 218.869423 43.3659516 277.365946 277.440916 233.981765"></polygon>
                <polygon id="Path" points="250.335772 87.7433044 191.8176 98.5891218 202.658519 157.08462 261.177829 146.238917"></polygon>
                <polygon id="Path" points="74.7801183 120.280757 16.261947 131.126574 27.1028652 189.6223 85.6221759 178.776825"></polygon>
                <polygon id="Path" points="162.559084 104.011974 104.040913 114.857677 114.881831 173.353517 173.401142 162.506902"></polygon>
            </g>
            <polygon id="Path" points="1101.36437 251.401497 1099.62117 299.71248 1076.03775 246.13043 1026.07838 235.74753 1023.95919 294.093204 1000.73012 230.424941 950.822015 220.02142 942.756555 442.96459 993.41093 433.576343 995.893574 365.19755 1019.11239 428.812719 1069.76677 419.424473 1071.88596 361.078343 1095.46937 414.660849 1146.12375 405.272603 1151.30096 261.833097 1101.38374 251.386834"></polygon>
            <polygon id="Path" points="753.078654 1053.03427 519.00369 1096.41731 562.369641 1330.39885 796.444606 1287.01581"></polygon>
            <polygon id="Path" points="234.074543 1192.0145 185.034706 1158.3148 123.388107 1247.97255 33.7054003 1186.36218 0 1235.39754 89.6805417 1296.99652 28.0337144 1386.65541 77.0736305 1420.35853 138.720116 1330.69736 228.402857 1392.30773 262.108451 1343.27237 172.437479 1281.65858"></polygon>
            <g id="Group" transform="translate(484.669368, 804.263967)">
                <polygon id="Path" points="141.601875 0 63.5723293 14.4617735 78.0284061 92.4594171 156.057951 77.9976436"></polygon>
                <polygon id="Path" points="170.512889 155.983894 92.4833435 170.445667 106.93942 248.443311 184.968966 233.981537"></polygon>
                <polygon id="Path" points="234.076103 63.5381488 156.046558 77.9999223 170.502635 155.997566 248.53218 141.535792"></polygon>
                <polygon id="Path" points="78.0295454 92.4594171 -3.23822835e-14 106.921191 14.4560768 184.918834 92.4856222 170.457061"></polygon>
            </g>
            <g id="Group" transform="translate(215.733623, 847.464736)">
                <path d="M192.069476,106.198819 C221.15709,100.807414 240.367675,72.8671259 234.979688,43.7920453 C229.590561,14.7158253 201.642298,-4.48450614 172.554684,0.906899537 C143.46821,6.29830521 124.256485,34.2385929 129.645612,63.3136735 C135.034739,92.3898934 162.983002,111.590225 192.069476,106.198819 Z" id="Path"></path>
                <path d="M63.329955,130.059093 C92.4169988,124.668827 111.628268,96.7285394 106.239369,67.6523195 C100.850584,38.5772389 72.9023206,19.3769074 43.8152768,24.7671738 C14.7281305,30.1585794 -4.48315008,58.0988671 0.905726232,87.1750871 C6.29456837,116.250168 34.2427973,135.450499 63.329955,130.059093 Z" id="Path"></path>
                <path d="M215.920636,234.889576 C245.00711,229.498171 264.218835,201.557883 258.829708,172.481663 C253.44172,143.406582 225.493457,124.206251 196.405844,129.597657 C167.31823,134.987923 148.107644,162.928211 153.496771,192.004431 C158.884759,221.079511 186.833022,240.279843 215.920636,234.889576 Z" id="Path"></path>
                <path d="M87.1806587,258.74985 C116.267702,253.358445 135.479086,225.418157 130.089959,196.343076 C124.700832,167.266857 96.7530243,148.066525 67.6658666,153.457931 C38.5788228,158.849336 19.3675878,186.789624 24.7564527,215.864705 C30.1452379,244.940925 58.093501,264.141256 87.1806587,258.74985 Z" id="Path"></path>
            </g>
            <polygon id="Path" points="399.836762 616.748553 399.834483 616.73716 392.170074 575.381022 333.650877 586.226498 158.094654 618.764064 168.936142 677.259448 303.119593 652.38971 193.79574 811.389464 242.835543 845.089167 352.159509 686.089413 377.016715 820.208035 435.536025 809.362559 403.010992 633.876406"></polygon>
            <polygon id="Path" points="457.127853 762.583114 457.130132 762.595647 464.795681 803.951785 523.313852 793.10517 698.869506 760.568743 688.028587 702.072219 553.845022 726.941958 663.169103 567.942204 614.129187 534.2425 504.802828 693.230861 479.945622 559.112239 421.427451 569.957715 453.953623 745.4564 457.125575 762.571721"></polygon>
            <path d="M372.704274,1123.53157 L277.350109,1262.21443 L416.070225,1357.51425 L511.424732,1218.83139 L372.704274,1123.53157 Z M338.981783,1249.48447 L383.932571,1184.10969 L449.324443,1229.03427 L404.374794,1294.40905 L338.981783,1249.48447 Z" id="Shape"></path>
            <polygon id="Path" points="2069.85657 808.984295 1835.77705 852.367337 1879.14072 1086.35001 2113.22024 1042.96583"></polygon>
            <g id="Group" transform="translate(948.198092, 428.942605)">
                <polygon id="Path" points="234.074964 -6.4764567e-14 0 43.3841812 10.8420576 101.879565 244.917022 58.4965237"></polygon>
                <polygon id="Path" points="250.33805 87.7436462 16.2630863 131.126688 27.1040046 189.622072 261.178969 146.239031"></polygon>
                <polygon id="Path" points="266.599997 175.487292 32.5250333 218.870334 43.3670909 277.365719 277.442055 233.982677"></polygon>
            </g>
            <path d="M850.689074,762.670844 C786.049173,774.651113 743.358857,836.738869 755.334568,901.353704 C767.310279,965.967399 829.415125,1008.63265 894.055025,996.652382 C958.694926,984.672113 1001.38524,922.584357 989.409532,857.969522 C977.433821,793.355827 915.328974,750.690576 850.689074,762.670844 Z" id="Path"></path>
            <polygon id="Path" points="1542.85008 1340.27246 1528.39173 1262.28621 1450.38041 1276.7457 1435.92206 1198.74806 1357.89023 1213.20983 1401.25163 1447.19023 1635.33115 1403.80377 1620.87279 1325.81069"></polygon>
            <polygon id="Path" points="1550.84832 947.964525 1501.81069 914.264821 1440.16044 1003.92258 1350.47876 942.312208 1316.77222 991.347567 1406.45846 1052.94768 1344.80707 1142.60544 1393.84585 1176.30628 1455.4961 1086.64738 1545.17436 1148.25889 1578.87634 1099.22239 1489.20947 1037.60975"></polygon>
            <polygon id="Path" points="1065.29824 1267.43835 831.223274 1310.82139 842.065331 1369.31792 1076.1403 1325.93374"></polygon>
            <path d="M1866.14074,1179.51583 L1862.97334,1162.38797 L1862.96195,1162.37658 L1855.30551,1121.02044 L1621.22599,1164.40349 L1632.07261,1222.89887 L1656.92184,1357.01749 L1656.93323,1357.02889 L1664.58967,1398.38502 L1898.66919,1355.00198 L1887.82257,1296.5066 L1866.14074,1179.51583 Z M1690.60103,1212.05112 L1766.25389,1198.02913 L1704.60365,1287.67663 L1690.58964,1212.05339 L1690.60103,1212.05112 Z M1815.29153,1231.72997 L1829.30554,1307.35207 L1753.64129,1321.37634 L1815.28014,1231.73225 L1815.29153,1231.72997 Z" id="Shape"></path>
            <g id="Group" transform="translate(684.863472, 477.748955)">
                <polygon id="Path" points="138.721597 138.682859 21.6841151 160.37495 43.3670909 277.365719 160.404573 255.673628"></polygon>
                <polygon id="Path" points="0 43.3830418 277.440916 233.982677 234.074964 0"></polygon>
            </g>
            <polygon id="Path" points="1879.47113 652.673408 1801.44842 667.135181 1815.89539 745.133964 1893.92949 730.672191"></polygon>
            <g id="Group" transform="translate(1211.532711, 380.137395)">
                <polygon id="Path" points="234.073825 3.23822835e-14 175.556793 10.8454756 186.392014 69.34086 244.92044 58.4953843"></polygon>
                <polygon id="Path" points="234.073825 3.23822835e-14 175.556793 10.8454756 186.392014 69.34086 244.92044 58.4953843"></polygon>
                <polygon id="Path" points="58.5193107 32.5375662 1.29529134e-13 43.3830418 10.8420576 101.878426 69.3602289 91.0329505"></polygon>
                <polygon id="Path" points="146.298277 16.2687831 87.778966 27.1142587 98.6210236 85.609643 157.144892 74.7641674"></polygon>
                <polygon id="Path" points="250.343747 87.7425068 191.815322 98.5891218 202.661937 157.084506 261.178969 146.239031"></polygon>
                <polygon id="Path" points="74.7812577 120.280073 16.2630863 131.126688 27.1040046 189.622072 85.6233153 178.775457"></polygon>
                <polygon id="Path" points="162.556806 104.01129 104.042052 114.857905 114.882971 173.353289 173.403421 162.506674"></polygon>
                <polygon id="Path" points="266.602276 175.486153 208.085244 186.331629 218.920466 244.828152 277.437498 233.981537"></polygon>
                <polygon id="Path" points="91.044344 208.023719 32.5250333 218.869195 43.3670909 277.364579 101.885262 266.519104"></polygon>
                <polygon id="Path" points="178.815335 191.754936 120.301721 202.600412 131.143778 261.095796 189.66195 250.25032"></polygon>
            </g>
            <g id="Group" transform="translate(1532.510397, 603.415104)">
                <path d="M192.066062,106.198475 C221.153676,100.808209 240.363122,72.866782 234.973995,43.7917014 C229.584868,14.7166208 201.636605,-4.4837106 172.548991,0.906555724 C143.461378,6.2979614 124.251932,34.2382491 129.641059,63.314469 C135.030186,92.3895496 162.978449,111.589881 192.066062,106.198475 Z" id="Path"></path>
                <path d="M63.3308705,130.059889 C92.4184839,124.668483 111.62793,96.7281956 106.238803,67.6519757 C100.849676,38.5768951 72.9014131,19.3765636 43.8137996,24.7679693 C14.7261862,30.1582356 -4.48326007,58.0996627 0.905866907,87.1747433 C6.29499388,116.250963 34.243257,135.450155 63.3308705,130.059889 Z" id="Path"></path>
                <path d="M215.912664,234.889232 C245.000278,229.497827 264.209724,201.557539 258.820597,172.481319 C253.442863,143.406239 225.4946,124.205907 196.406987,129.597313 C167.319373,134.987579 148.098534,162.929006 153.487661,192.004087 C158.876788,221.080307 186.825051,240.279499 215.912664,234.889232 Z" id="Path"></path>
                <path d="M87.1774725,258.749507 C116.265086,253.35924 135.474532,225.417813 130.085405,196.342733 C124.696278,167.266513 96.7480151,148.067321 67.6604017,153.457587 C38.5727882,158.848993 19.363342,186.78928 24.7524689,215.8655 C30.1415959,244.940581 58.089859,264.140912 87.1774725,258.749507 Z" id="Path"></path>
            </g>
            <g id="Group" transform="translate(1045.770913, 955.402204)">
                <polygon id="Path" points="162.560224 104.012429 104.040913 114.857905 114.882971 173.353289 173.401142 162.507814"></polygon>
                <path d="M175.555653,10.846615 L0,43.3841812 L43.3659516,277.365719 L277.440916,233.982677 L234.074964,0 L175.555653,10.846615 Z M208.080687,186.332768 L91.0432047,208.024859 L69.3602289,91.0329505 L186.397711,69.3419993 L208.080687,186.332768 Z" id="Shape"></path>
            </g>
            <path d="M1114.02369,713.864495 C1049.38379,725.844764 1006.69348,787.933659 1018.66919,852.547354 C1030.6449,917.16105 1092.74974,959.82744 1157.38964,947.847172 C1222.02955,935.866903 1264.71872,873.778008 1252.74415,809.164312 C1240.76844,744.549478 1178.66359,701.884226 1114.02369,713.864495 Z M1146.54759,889.350648 C1114.23333,895.340213 1083.17464,874.00246 1077.18736,841.701879 C1071.20121,809.400158 1092.55036,778.349444 1124.86461,772.359879 C1157.17887,766.371454 1188.23869,787.709207 1194.22484,820.009788 C1200.21213,852.311509 1178.86184,883.362223 1146.54759,889.350648 Z" id="Shape"></path>
            <polygon id="Path" points="1716.6124 372.698919 1716.6124 372.687184 1708.94457 331.330818 1650.42754 342.176636 1474.86505 374.714088 1485.71167 433.209472 1619.89295 408.339734 1510.57229 567.339488 1559.60993 601.04033 1668.93059 442.040576 1693.79121 576.159198 1752.30825 565.312583 1719.77979 389.82643"></polygon>
            <polygon id="Path" points="1773.89893 518.534278 1773.89893 518.545671 1781.56676 559.901809 1840.08379 549.056333 2015.64628 516.518767 2004.79967 458.023383 1870.61838 482.891982 1979.93904 323.892911 1930.90141 290.192866 1821.58074 449.180885 1796.72012 315.062263 1738.20309 325.90808 1770.73154 501.406424 1773.89893 518.521745"></polygon>
            <g id="Group" transform="translate(1260.318552, 643.367194)">
                <polygon id="Path" points="175.557932 10.8454756 58.5181713 32.5375662 69.3602289 91.0329505 186.393154 69.34086 208.07499 186.331629 266.603415 175.486153 244.910186 58.4953843 234.074964 0"></polygon>
                <polygon id="Path" points="1.29529134e-13 43.3830418 69.3602289 91.0329505 58.5181713 32.5375662"></polygon>
                <polygon id="Path" points="208.07499 186.331629 277.438637 233.981537 266.603415 175.486153"></polygon>
                <polygon id="Path" points="138.722737 138.68172 21.6829758 160.37381 43.3659516 277.364579 160.404573 255.673628"></polygon>
            </g>
            <polygon id="Path" points="1038.19537 1121.2016 899.476054 1025.90292 804.122687 1164.58464 942.840866 1259.88332"></polygon>
            <polygon id="Path" points="1296.53166 1304.43534 1294.78846 1352.74607 1271.20504 1299.16356 1221.24453 1288.78066 1219.12648 1347.12679 1195.89741 1283.45876 1145.98931 1273.05535 1137.92271 1496 1188.57822 1486.61175 1191.06086 1418.22795 1214.27968 1481.84927 1264.93406 1472.46102 1267.05325 1414.11489 1290.63666 1467.69854 1341.29104 1458.31029 1346.46825 1314.86723 1296.55103 1304.42052"></polygon>
            <path d="M1689.47308,879.481596 L1594.12085,1018.16445 L1732.84814,1113.46427 L1828.20037,974.781413 L1689.47308,879.481596 Z M1655.7597,1005.43563 L1700.70707,940.059712 L1766.09438,984.984295 L1721.14702,1050.35908 L1655.7597,1005.43563 Z" id="Shape"></path>
        </g>
    </g>
</svg>