<svg width="32" height="32" viewBox="0 0 32 32" fill="none" xmlns="http://www.w3.org/2000/svg">
<mask id="mask0_33_4236" style="mask-type:alpha" maskUnits="userSpaceOnUse" x="0" y="0" width="32" height="32">
<rect width="32" height="32" fill="#D9D9D9"/>
</mask>
<g mask="url(#mask0_33_4236)">
<path d="M10.773 23.9934H12.2003V21.1917H15.002V19.7644H12.2003V16.9713H10.773V19.7644H7.97979V21.1917H10.773V23.9934ZM17.6875 22.908H23.9576V21.4943H17.6875V22.908ZM17.6875 19.4618H23.9576V18.0345H17.6875V19.4618ZM18.8362 14.1165L20.7798 12.1644L22.7319 14.1165L23.7507 13.0892L21.7986 11.1405L23.7507 9.18833L22.7319 8.16956L20.7798 10.1131L18.8362 8.16956L17.8089 9.18833L19.761 11.1405L17.8089 13.0892L18.8362 14.1165ZM8.39006 11.8499H14.5832V10.4225H8.39006V11.8499ZM6.75246 27.3336C6.17939 27.3336 5.68855 27.1293 5.27993 26.7207C4.8713 26.312 4.66699 25.8212 4.66699 25.2481V6.75246C4.66699 6.17939 4.8713 5.68855 5.27993 5.27993C5.68855 4.8713 6.17939 4.66699 6.75246 4.66699H25.2481C25.8212 4.66699 26.312 4.8713 26.7207 5.27993C27.1293 5.68855 27.3336 6.17939 27.3336 6.75246V25.2481C27.3336 25.8212 27.1293 26.312 26.7207 26.7207C26.312 27.1293 25.8212 27.3336 25.2481 27.3336H6.75246ZM6.75246 25.6584H25.2481C25.3507 25.6584 25.4447 25.6157 25.5302 25.5302C25.6157 25.4447 25.6584 25.3507 25.6584 25.2481V6.75246C25.6584 6.64988 25.6157 6.55586 25.5302 6.47039C25.4447 6.38491 25.3507 6.34216 25.2481 6.34216H6.75246C6.64988 6.34216 6.55586 6.38491 6.47039 6.47039C6.3849 6.55586 6.34216 6.64988 6.34216 6.75246V25.2481C6.34216 25.3507 6.3849 25.4447 6.47039 25.5302C6.55586 25.6157 6.64988 25.6584 6.75246 25.6584Z" fill="#08090B"/>
</g>
</svg>
