<svg width="19" height="19" viewBox="0 0 19 19" fill="none" xmlns="http://www.w3.org/2000/svg">
<path d="M5.89998 14.1538L9.49998 10.5538L13.1 14.1538L14.1538 13.1L10.5538 9.49998L14.1538 5.89998L13.1 4.84615L9.49998 8.44615L5.89998 4.84615L4.84615 5.89998L8.44615 9.49998L4.84615 13.1L5.89998 14.1538ZM9.50165 19C8.18772 19 6.95268 18.7506 5.79655 18.252C4.6404 17.7533 3.63472 17.0765 2.7795 16.2217C1.92427 15.3669 1.24721 14.3616 0.748325 13.206C0.249442 12.0504 0 10.8156 0 9.50165C0 8.18772 0.249334 6.95268 0.748 5.79655C1.24667 4.6404 1.92342 3.63472 2.77825 2.7795C3.6331 1.92427 4.63834 1.24721 5.79398 0.748325C6.94959 0.249442 8.18437 0 9.4983 0C10.8122 0 12.0473 0.249333 13.2034 0.748C14.3596 1.24667 15.3652 1.92342 16.2205 2.77825C17.0757 3.6331 17.7527 4.63834 18.2516 5.79398C18.7505 6.94959 19 8.18437 19 9.4983C19 10.8122 18.7506 12.0473 18.252 13.2034C17.7533 14.3596 17.0765 15.3652 16.2217 16.2205C15.3669 17.0757 14.3616 17.7527 13.206 18.2516C12.0504 18.7505 10.8156 19 9.50165 19Z" fill="#A7A7B0"/>
</svg>
