<svg width="65" height="65" viewBox="0 0 65 65" fill="none" xmlns="http://www.w3.org/2000/svg">
<mask id="mask0_33_4956" style="mask-type:alpha" maskUnits="userSpaceOnUse" x="0" y="0" width="65" height="65">
<rect x="0.5" y="0.5" width="64" height="64" fill="#D9D9D9"/>
</mask>
<g mask="url(#mask0_33_4956)">
<path d="M28.6165 43.771L46.572 25.8156L44.0866 23.3575L28.6165 38.8447L20.8182 31.0464L18.3773 33.5044L28.6165 43.771ZM32.5047 57.8326C29.0191 57.8326 25.7377 57.1677 22.6603 55.8379C19.583 54.5081 16.8966 52.696 14.6012 50.4016C12.3058 48.1072 10.4929 45.422 9.16253 42.3461C7.83217 39.2701 7.16699 35.9893 7.16699 32.5038C7.16699 28.9999 7.83188 25.7065 9.16166 22.6235C10.4914 19.5404 12.3035 16.8586 14.5979 14.578C16.8923 12.2974 19.5775 10.4919 22.6535 9.16155C25.7295 7.8312 29.0102 7.16602 32.4958 7.16602C35.9996 7.16602 39.293 7.83091 42.3761 9.16069C45.4591 10.4905 48.1409 12.2951 50.4215 14.5747C52.7021 16.8543 54.5076 19.5349 55.838 22.6166C57.1684 25.6983 57.8335 28.991 57.8335 32.4948C57.8335 35.9804 57.1686 39.2619 55.8389 42.3392C54.5091 45.4166 52.7044 48.1029 50.4249 50.3983C48.1453 52.6938 45.4646 54.5067 42.3829 55.837C39.3013 57.1674 36.0085 57.8326 32.5047 57.8326Z" fill="#08090B"/>
</g>
</svg>
