<svg width="24" height="24" viewBox="0 0 24 24" fill="none" xmlns="http://www.w3.org/2000/svg">
<mask id="mask0_43_1192" style="mask-type:alpha" maskUnits="userSpaceOnUse" x="0" y="0" width="24" height="24">
<rect width="24" height="24" fill="#D9D9D9"/>
</mask>
<g mask="url(#mask0_43_1192)">
<path d="M4.98262 22C4.42862 22 3.95968 21.8108 3.57581 21.4324C3.19194 21.054 3 20.5918 3 20.0457V6.32435H4.64514V20.0457C4.64514 20.1289 4.6803 20.2051 4.7506 20.2745C4.8209 20.3438 4.89824 20.3784 4.98262 20.3784H15.6129V22H4.98262ZM8.82133 18.2162C8.26731 18.2162 7.79836 18.027 7.41449 17.6487C7.03063 17.2703 6.83871 16.808 6.83871 16.262V3.95425C6.83871 3.40818 7.03063 2.94595 7.41449 2.56757C7.79836 2.18919 8.26731 2 8.82133 2H18.0174C18.5714 2 19.0403 2.18919 19.4242 2.56757C19.8081 2.94595 20 3.40818 20 3.95425V16.262C20 16.808 19.8081 17.2703 19.4242 17.6487C19.0403 18.027 18.5714 18.2162 18.0174 18.2162H8.82133ZM8.82133 16.5946H18.0174C18.1017 16.5946 18.1791 16.56 18.2494 16.4907C18.3197 16.4214 18.3549 16.3451 18.3549 16.262V3.95425C18.3549 3.87108 18.3197 3.79485 18.2494 3.72555C18.1791 3.65625 18.1017 3.6216 18.0174 3.6216H8.82133C8.73695 3.6216 8.65961 3.65625 8.58931 3.72555C8.51898 3.79485 8.48382 3.87108 8.48382 3.95425V16.262C8.48382 16.3451 8.51898 16.4214 8.58931 16.4907C8.65961 16.56 8.73695 16.5946 8.82133 16.5946Z" fill="#91919D"/>
</g>
</svg>
