<svg width="18" height="18" viewBox="0 0 18 18" fill="none" xmlns="http://www.w3.org/2000/svg">
<path d="M8.98088 17.5C6.81549 17.5 4.92832 16.7871 3.31935 15.3615C1.71039 13.9359 0.784111 12.1487 0.540527 9.99998H2.07125C2.32382 11.7269 3.10106 13.1586 4.40298 14.2952C5.70491 15.4317 7.23088 16 8.98088 16C10.9309 16 12.585 15.3208 13.9434 13.9625C15.3017 12.6041 15.9809 10.95 15.9809 8.99998C15.9809 7.04997 15.3017 5.39581 13.9434 4.03748C12.585 2.67914 10.9309 1.99997 8.98088 1.99997C7.88858 1.99997 6.86486 2.2426 5.90973 2.72785C4.95461 3.2131 4.13218 3.88073 3.44243 4.73073H6.0578V6.2307H0.980952V1.15382H2.4809V3.52308C3.29244 2.56539 4.26423 1.82212 5.39628 1.29327C6.52833 0.764425 7.72319 0.5 8.98088 0.5C10.1604 0.5 11.2655 0.723083 12.2963 1.16925C13.327 1.6154 14.2257 2.2218 14.9924 2.98845C15.759 3.75512 16.3655 4.65383 16.8116 5.6846C17.2578 6.71537 17.4808 7.82049 17.4808 8.99998C17.4808 10.1795 17.2578 11.2846 16.8116 12.3154C16.3655 13.3461 15.759 14.2448 14.9924 15.0115C14.2257 15.7782 13.327 16.3846 12.2963 16.8307C11.2655 17.2769 10.1604 17.5 8.98088 17.5ZM11.9828 13.0269L8.25973 9.30383V3.99998H9.7597V8.69613L13.0366 11.9731L11.9828 13.0269Z" fill="white"/>
</svg>
