<svg width="33" height="32" viewBox="0 0 33 32" fill="none" xmlns="http://www.w3.org/2000/svg">
<mask id="mask0_14_3002" style="mask-type:alpha" maskUnits="userSpaceOnUse" x="0" y="0" width="33" height="32">
<rect x="0.833496" width="32" height="32" fill="#D9D9D9"/>
</mask>
<g mask="url(#mask0_14_3002)">
<path d="M16.9179 23.3745C17.2416 23.3745 17.5158 23.2604 17.7406 23.0323C17.9654 22.8042 18.0778 22.5282 18.0778 22.2045C18.0778 21.8865 17.9652 21.6137 17.7399 21.386C17.5146 21.1584 17.2401 21.0446 16.9164 21.0446C16.5927 21.0446 16.317 21.1587 16.0894 21.3868C15.8618 21.6149 15.7479 21.8879 15.7479 22.206C15.7479 22.5297 15.862 22.8054 16.0901 23.033C16.3182 23.2606 16.5941 23.3745 16.9179 23.3745ZM15.9872 18.7266H17.6248C17.6362 18.1454 17.725 17.6444 17.891 17.2236C18.0572 16.8028 18.4733 16.297 19.1393 15.7061C19.7769 15.1198 20.2412 14.5701 20.5321 14.057C20.8229 13.5439 20.9684 12.9657 20.9684 12.3225C20.9684 11.2079 20.5913 10.3174 19.8372 9.65103C19.0831 8.98465 18.1382 8.65146 17.0026 8.65146C15.9741 8.65146 15.0848 8.91912 14.3347 9.45443C13.5845 9.98976 13.0374 10.6645 12.6932 11.4788L14.194 12.0668C14.4168 11.5215 14.7496 11.0684 15.1923 10.7074C15.6351 10.3464 16.2134 10.1659 16.9274 10.1659C17.7337 10.1659 18.3523 10.3863 18.7834 10.8271C19.2144 11.2678 19.43 11.7922 19.43 12.4002C19.43 12.8714 19.2964 13.307 19.0291 13.707C18.7619 14.107 18.3907 14.5124 17.9154 14.9232C17.1907 15.5717 16.6881 16.1617 16.4078 16.6933C16.1274 17.2249 15.9872 17.9027 15.9872 18.7266ZM16.8356 28.6668C15.0928 28.6668 13.4521 28.3343 11.9134 27.6694C10.3747 27.0045 9.03156 26.0985 7.88385 24.9513C6.73614 23.8041 5.82969 22.4615 5.16451 20.9235C4.49934 19.3855 4.16675 17.7451 4.16675 16.0024C4.16675 14.2505 4.49919 12.6037 5.16408 11.0622C5.82897 9.5207 6.73501 8.17979 7.88221 7.0395C9.02941 5.89919 10.372 4.99644 11.91 4.33126C13.448 3.66609 15.0884 3.3335 16.8311 3.3335C18.5831 3.3335 20.2298 3.66594 21.7713 4.33083C23.3128 4.99572 24.6537 5.89805 25.794 7.03783C26.9343 8.17763 27.8371 9.51795 28.5022 11.0588C29.1674 12.5996 29.5 14.246 29.5 15.9979C29.5 17.7407 29.1676 19.3814 28.5027 20.9201C27.8378 22.4588 26.9355 23.802 25.7957 24.9497C24.6559 26.0974 23.3156 27.0038 21.7747 27.669C20.2339 28.3342 18.5875 28.6668 16.8356 28.6668ZM16.8334 26.9916C19.8955 26.9916 22.4929 25.9229 24.6257 23.7856C26.7585 21.6483 27.8249 19.0531 27.8249 16.0001C27.8249 12.938 26.7585 10.3406 24.6257 8.20783C22.4929 6.07505 19.8955 5.00866 16.8334 5.00866C13.7804 5.00866 11.1852 6.07505 9.04791 8.20783C6.91058 10.3406 5.84191 12.938 5.84191 16.0001C5.84191 19.0531 6.91058 21.6483 9.04791 23.7856C11.1852 25.9229 13.7804 26.9916 16.8334 26.9916Z" fill="#E9E9EB"/>
</g>
</svg>
