<svg width="21" height="20" viewBox="0 0 21 20" fill="none" xmlns="http://www.w3.org/2000/svg">
<mask id="mask0_33_7492" style="mask-type:alpha" maskUnits="userSpaceOnUse" x="0" y="0" width="21" height="20">
<rect x="0.917969" width="20" height="20" fill="#D9D9D9"/>
</mask>
<g mask="url(#mask0_33_7492)">
<path d="M10.9178 18.5025C9.73842 18.5025 8.63184 18.2796 7.59802 17.8338C6.5642 17.388 5.66482 16.7826 4.89987 16.0177C4.13493 15.2528 3.52955 14.3534 3.08375 13.3196C2.63794 12.2857 2.41504 11.1791 2.41504 9.9998C2.41504 8.82045 2.63794 7.71387 3.08375 6.68005C3.52955 5.64623 4.13493 4.74685 4.89987 3.9819C5.66482 3.21696 6.5642 2.61158 7.59802 2.16578C8.63184 1.71997 9.73842 1.49707 10.9178 1.49707C12.0971 1.49707 13.2037 1.71997 14.2375 2.16578C15.2713 2.61158 16.1707 3.21696 16.9357 3.9819C17.7006 4.74685 18.306 5.64623 18.7518 6.68005C19.1976 7.71387 19.4205 8.82045 19.4205 9.9998C19.4205 10.3682 19.4005 10.7296 19.3605 11.084C19.3205 11.4385 19.2552 11.786 19.1646 12.1266C18.9403 11.8745 18.6789 11.6687 18.3804 11.5093C18.0819 11.3499 17.76 11.2524 17.4146 11.2167C17.4529 11.0217 17.4809 10.8223 17.4984 10.6187C17.5159 10.415 17.5246 10.2087 17.5246 9.9998C17.5246 8.15198 16.8855 6.58888 15.6071 5.31049C14.3287 4.03211 12.7656 3.39292 10.9178 3.39292C9.06995 3.39292 7.50684 4.03211 6.22846 5.31049C4.95008 6.58888 4.31089 8.15198 4.31089 9.9998C4.31089 11.8476 4.95008 13.4107 6.22846 14.6891C7.50684 15.9675 9.06995 16.6067 10.9178 16.6067C11.6161 16.6067 12.2816 16.5058 12.9141 16.3042C13.5467 16.1025 14.1305 15.8191 14.6655 15.4541C14.8355 15.7367 15.0545 15.984 15.3224 16.1961C15.5904 16.4082 15.8832 16.5695 16.2008 16.68C15.4792 17.2528 14.6708 17.6998 13.7756 18.0209C12.8803 18.342 11.9277 18.5025 10.9178 18.5025ZM17.069 15.1642C16.7475 15.1642 16.4744 15.0519 16.2497 14.8273C16.0251 14.6026 15.9128 14.3295 15.9128 14.0079C15.9128 13.6864 16.0251 13.4133 16.2497 13.1887C16.4744 12.964 16.7475 12.8517 17.069 12.8517C17.3906 12.8517 17.6637 12.964 17.8883 13.1887C18.113 13.4133 18.2253 13.6864 18.2253 14.0079C18.2253 14.3295 18.113 14.6026 17.8883 14.8273C17.6637 15.0519 17.3906 15.1642 17.069 15.1642ZM13.593 13.9464L10.0097 10.363V5.85805H11.8258V9.62661L14.8743 12.6751L13.593 13.9464Z" fill="#08090B"/>
</g>
</svg>
