<svg width="48" height="48" viewBox="0 0 48 48" fill="none" xmlns="http://www.w3.org/2000/svg">
<g clip-path="url(#clip0_1976_44399)">
<path d="M37.2088 44.2399C37.9703 43.7653 38.7046 43.2529 39.4062 42.7028C40.1133 42.2066 40.4995 41.3761 40.4179 40.5185C40.3363 39.661 39.8033 38.9167 39.0201 38.5554C38.2314 38.194 37.3122 38.2803 36.6051 38.7765L36.3821 38.9167C35.8219 39.3644 35.2399 39.785 34.6362 40.1734C30.4752 42.7675 25.4713 43.6952 20.6468 42.7675C15.8223 41.8399 11.5309 39.1271 8.64817 35.1792C5.76545 31.2313 4.50358 26.345 5.12363 21.5073C5.73825 16.6695 8.19128 12.2525 11.9715 9.14055C15.7571 6.02864 20.5924 4.4592 25.4985 4.75583C30.4045 5.04707 35.0169 7.1828 38.3946 10.7208L37.9486 10.6021C37.3176 10.4565 36.6595 10.5644 36.1101 10.9041C35.5608 11.2439 35.1746 11.7886 35.0332 12.4089C34.8864 13.0345 34.9951 13.6871 35.3378 14.2318C35.6805 14.7765 36.2298 15.1594 36.8553 15.2996L42.9308 16.6749C43.4149 16.8907 43.9588 16.9392 44.4809 16.8152C44.6713 16.8044 44.8562 16.7666 45.0357 16.6965L45.1989 16.594C45.4001 16.497 45.5959 16.3783 45.77 16.2381C46.0746 15.9414 46.2921 15.5693 46.4064 15.1648L47.9347 8.54729C48.1305 7.70594 47.8532 6.83223 47.2168 6.24437C46.5804 5.6565 45.6775 5.45156 44.8453 5.70504C44.0132 5.95853 43.3877 6.63268 43.1919 7.46864L42.8927 8.75763C38.933 3.97381 33.2492 0.894256 27.0432 0.166166C20.8372 -0.561924 14.5822 1.12077 9.60001 4.8583C4.61236 8.60122 1.28364 14.1077 0.299159 20.2291C-0.685316 26.3504 0.761482 32.612 4.32953 37.6979C7.89757 42.7891 13.3149 46.3109 19.4448 47.5298C25.5746 48.7486 31.9384 47.5675 37.2143 44.2399H37.2088Z" fill="black"/>
<path d="M24.507 20.4224C24.507 21.911 24.5233 23.3995 24.4961 24.888C24.4907 25.3465 24.6593 25.6053 25.0455 25.848C26.9709 27.0669 28.8909 28.2912 30.7837 29.564C31.8389 30.2759 32.138 31.2898 31.7736 32.4817C31.3167 33.9757 29.5273 34.79 28.1838 33.9918C25.5404 32.4116 22.9405 30.7451 20.3352 29.0948C19.5139 28.577 19.1495 27.768 19.1495 26.8242C19.1386 23.1352 19.1495 19.4462 19.1495 15.7572C19.1495 14.2957 20.3842 12.8125 22.0866 12.9959C23.0493 13.1038 24.1317 13.9235 24.3493 14.9644C24.4417 15.3959 24.4689 15.8435 24.4744 16.2858C24.4907 17.6665 24.4798 19.0417 24.4798 20.4224C24.4907 20.4224 24.4961 20.4224 24.507 20.4224Z" fill="black"/>
</g>
<defs>
<clipPath id="clip0_1976_44399">
<rect width="48" height="48" fill="white"/>
</clipPath>
</defs>
</svg>
