<svg width="32" height="32" viewBox="0 0 32 32" fill="none" xmlns="http://www.w3.org/2000/svg">
<path d="M22.0984 23.6408L23.6238 22.1154L17.1088 15.572V7.40163H15.0151V16.4275L22.0984 23.6408ZM16.003 31.8333C13.8244 31.8333 11.7734 31.4177 9.85008 30.5866C7.92675 29.7555 6.24772 28.623 4.813 27.1891C3.37855 25.755 2.2455 24.0766 1.41383 22.1541C0.582442 20.2316 0.166748 18.1812 0.166748 16.0029C0.166748 13.8243 0.582304 11.7733 1.41341 9.84996C2.24453 7.92663 3.37703 6.2476 4.81091 4.81288C6.24508 3.37843 7.92341 2.24538 9.84591 1.41371C11.7684 0.58232 13.8188 0.166626 15.9972 0.166626C18.1758 0.166626 20.2267 0.582181 22.1501 1.41329C24.0734 2.2444 25.7524 3.3769 27.1872 4.81079C28.6216 6.24496 29.7547 7.92329 30.5863 9.84579C31.4177 11.7683 31.8334 13.8187 31.8334 15.997C31.8334 18.1757 31.4179 20.2266 30.5868 22.15C29.7556 24.0733 28.6231 25.7523 27.1892 27.187C25.7551 28.6215 24.0767 29.7545 22.1542 30.5862C20.2317 31.4176 18.1813 31.8333 16.003 31.8333ZM16.0001 29.7391C19.7884 29.7391 23.0254 28.3963 25.7109 25.7108C28.3965 23.0252 29.7392 19.7883 29.7392 16C29.7392 12.2116 28.3965 8.97468 25.7109 6.28913C23.0254 3.60357 19.7884 2.26079 16.0001 2.26079C12.2117 2.26079 8.9748 3.60357 6.28925 6.28913C3.60369 8.97468 2.26091 12.2116 2.26091 16C2.26091 19.7883 3.60369 23.0252 6.28925 25.7108C8.9748 28.3963 12.2117 29.7391 16.0001 29.7391Z" fill="#E6C923"/>
</svg>
