<?xml version="1.0" encoding="UTF-8"?>
<svg width="542px" height="542px" viewBox="0 0 542 542" version="1.1" xmlns="http://www.w3.org/2000/svg" xmlns:xlink="http://www.w3.org/1999/xlink">
    <title>icon</title>
    <defs>
        <linearGradient x1="11.3081251%" y1="3.94424452%" x2="90.8632735%" y2="96.8493689%" id="linearGradient-1">
            <stop stop-color="#242432" offset="0%"></stop>
            <stop stop-color="#000000" stop-opacity="0.931353802" offset="100%"></stop>
        </linearGradient>
    </defs>
    <g id="icon" stroke="none" stroke-width="1" fill="none" fill-rule="evenodd">
        <g id="Group-3" fill="url(#linearGradient-1)" stroke="#262626" stroke-width="15">
            <rect id="Rectangle" x="7.5" y="7.5" width="527" height="527" rx="73"></rect>
        </g>
        <g transform="translate(129.000000, 101.000000)" fill-rule="nonzero">
            <g id="Group" opacity="0.312290737" transform="translate(8.000000, 18.000000)" fill="#000000">
                <polygon id="Path" points="141.66396 0 0 79.6856324 0 239.056897 28.3358369 255 28.3358369 95.6287353 170 15.9429037"></polygon>
                <polygon id="Path" points="170 198.33776 170 226.666667 198.333333 212.495573 198.333333 184.166667"></polygon>
                <polygon id="Path" points="198.328292 42.5 170.005143 58.4429099 56.6666667 122.185564 56.6666667 281.571832 84.9902216 297.5 84.9902216 138.128673 226.666667 58.4429099"></polygon>
                <polygon id="Path" points="226.661591 171.578993 226.661591 234.532118 170 266.008681 170 297.5 255 250.277778 255 155.833333"></polygon>
                <polygon id="Path" points="254.998308 85 113.333333 164.695767 113.333333 324.057819 141.669373 340 141.669373 180.623008 283.333333 100.941982"></polygon>
            </g>
            <polygon id="Path" fill="#FFFFFF" points="141.66396 0 0 79.6856324 0 239.056897 28.3358369 255 28.3358369 95.6287353 170 15.9429037"></polygon>
            <polygon id="Path" fill="#FFFFFF" points="170 198.33776 170 226.666667 198.333333 212.495573 198.333333 184.166667"></polygon>
            <polygon id="Path" fill="#FFFFFF" points="198.328292 42.5 170.005143 58.4429099 56.6666667 122.185564 56.6666667 281.571832 84.9902216 297.5 84.9902216 138.128673 226.666667 58.4429099"></polygon>
            <polygon id="Path" fill="#FFFFFF" points="226.661591 171.578993 226.661591 234.532118 170 266.008681 170 297.5 255 250.277778 255 155.833333"></polygon>
            <polygon id="Path" fill="#FFFFFF" points="254.998308 85 113.333333 164.695767 113.333333 324.057819 141.669373 340 141.669373 180.623008 283.333333 100.941982"></polygon>
        </g>
    </g>
</svg>